<svg xmlns="http://www.w3.org/2000/svg" viewBox="0 0 100 100" width="100" height="100">
  <defs>
    <linearGradient id="grad" x1="0%" y1="0%" x2="100%" y2="100%">
      <stop offset="0%" stop-color="#4f46e5"/>
      <stop offset="50%" stop-color="#7c3aed"/>
      <stop offset="100%" stop-color="#2563eb"/>
    </linearGradient>
    <linearGradient id="sparkleGrad" x1="0%" y1="0%" x2="100%" y2="100%">
      <stop offset="0%" stop-color="#fbbf24"/>
      <stop offset="100%" stop-color="#f59e0b"/>
    </linearGradient>
  </defs>
  <rect width="100" height="100" rx="24" fill="url(#grad)"/>
  <!-- Graduation Cap -->
  <polygon points="50,22 82,38 50,54 18,38" fill="#ffffff"/>
  <polygon points="32,46 32,66 50,74 68,66 68,46 50,54" fill="#e0e7ff"/>
  <path d="M 78,40 L 78,60 C 78,62 76,64 74,64 C 72,64 70,62 70,60 L 70,42" fill="none" stroke="#fcd34d" stroke-width="3"/>
  <!-- AI Sparkle -->
  <path d="M 72 20 Q 72 28 80 28 Q 72 28 72 36 Q 72 28 64 28 Q 72 28 72 20 Z" fill="url(#sparkleGrad)"/>
</svg>